<svg viewBox="0 0 401 122" xmlns="http://www.w3.org/2000/svg" fill-rule="evenodd" clip-rule="evenodd" stroke-linejoin="round" stroke-miterlimit="1.414" width="401" height="122"><path d="M58.681 103.45h2.427l3.816 9.093h.068l3.782-9.094h2.429v12.014h-1.63v-9.877h-.032l-4.057 9.877h-1.086l-4.055-9.877h-.034v9.877H58.68v-12.014zM80.959 114.242c.69 0 1.312-.126 1.867-.382a4.423 4.423 0 0 0 1.424-1.028 4.47 4.47 0 0 0 .916-1.517 5.34 5.34 0 0 0 .324-1.858c0-.653-.11-1.274-.324-1.856a4.461 4.461 0 0 0-.916-1.52 4.37 4.37 0 0 0-1.424-1.027c-.555-.254-1.178-.382-1.867-.382-.69 0-1.312.128-1.867.382a4.359 4.359 0 0 0-1.425 1.028 4.49 4.49 0 0 0-.917 1.52 5.294 5.294 0 0 0-.322 1.855c0 .655.106 1.276.322 1.858a4.412 4.412 0 0 0 2.342 2.545c.555.256 1.178.382 1.867.382m0 1.528c-.918 0-1.76-.16-2.527-.484a5.842 5.842 0 0 1-1.977-1.33 6.21 6.21 0 0 1-1.292-2.004 6.622 6.622 0 0 1-.466-2.495c0-.893.156-1.728.466-2.495a6.108 6.108 0 0 1 1.292-1.998 5.855 5.855 0 0 1 1.977-1.336c.767-.322 1.609-.48 2.527-.48.914 0 1.759.158 2.527.48a5.908 5.908 0 0 1 1.977 1.336 6.07 6.07 0 0 1 1.289 1.998c.313.767.468 1.602.468 2.495s-.155 1.726-.468 2.495a6.17 6.17 0 0 1-1.29 2.003 5.895 5.895 0 0 1-1.976 1.33c-.768.325-1.613.485-2.527.485M90.832 103.45h2.138l6.616 9.875h.036v-9.876h1.629v12.014h-2.072l-6.686-9.877h-.034v9.877h-1.627v-12.014zM108.123 104.978h-3.87v-1.53h9.367v1.53h-3.868v10.484h-1.629v-10.484zM116.622 103.45h7.755v1.53h-6.128v3.578h5.703v1.528h-5.703v3.849h6.432v1.528h-8.059v-12.014zM128.615 112.951c.295.443.671.767 1.129.978.459.208.93.313 1.418.313.27 0 .546-.045.83-.128.284-.085.54-.21.772-.382.23-.17.421-.38.569-.628.146-.248.22-.535.22-.866 0-.46-.146-.817-.441-1.058a3.776 3.776 0 0 0-1.095-.609 19.098 19.098 0 0 0-1.426-.478 5.85 5.85 0 0 1-1.423-.636 3.459 3.459 0 0 1-1.095-1.096c-.293-.456-.44-1.075-.44-1.856 0-.353.075-.722.228-1.12a3.12 3.12 0 0 1 .72-1.083 4.02 4.02 0 0 1 1.267-.828c.513-.218 1.13-.326 1.856-.326.655 0 1.283.09 1.883.27.6.182 1.127.549 1.578 1.1l-1.324 1.206a2.143 2.143 0 0 0-.866-.76 2.722 2.722 0 0 0-1.271-.293c-.452 0-.83.061-1.129.18-.3.119-.54.272-.722.455-.181.19-.307.39-.38.605a1.854 1.854 0 0 0-.111.594c0 .51.146.896.441 1.17.295.275.66.495 1.094.664.436.168.913.323 1.426.456.515.137.99.326 1.426.567.434.245.799.572 1.094.986.294.412.441.981.441 1.705a3.57 3.57 0 0 1-.331 1.56 3.436 3.436 0 0 1-.891 1.17 3.954 3.954 0 0 1-1.323.733 5.189 5.189 0 0 1-1.63.252 5.853 5.853 0 0 1-2.188-.408 3.624 3.624 0 0 1-1.647-1.253l1.341-1.156zM139.32 112.951c.295.443.671.767 1.129.978.459.208.93.313 1.418.313.27 0 .546-.045.83-.128.284-.085.54-.21.772-.382.23-.17.421-.38.569-.628.146-.248.22-.535.22-.866 0-.46-.146-.817-.441-1.058a3.776 3.776 0 0 0-1.095-.609 19.38 19.38 0 0 0-1.426-.478 5.85 5.85 0 0 1-1.423-.636 3.44 3.44 0 0 1-1.095-1.096c-.293-.456-.44-1.075-.44-1.856 0-.353.075-.722.228-1.12a3.12 3.12 0 0 1 .72-1.083 4.01 4.01 0 0 1 1.265-.828c.515-.218 1.132-.326 1.858-.326.655 0 1.283.09 1.881.27.601.182 1.129.549 1.58 1.1l-1.324 1.206a2.155 2.155 0 0 0-.866-.76 2.722 2.722 0 0 0-1.271-.293c-.452 0-.83.061-1.129.18-.3.119-.542.272-.722.455-.181.19-.307.39-.38.605a1.854 1.854 0 0 0-.111.594c0 .51.146.896.441 1.17.295.275.66.495 1.094.664.434.168.911.323 1.426.456.513.137.99.326 1.426.567.434.245.799.572 1.094.986.294.412.441.981.441 1.705 0 .578-.11 1.098-.333 1.56-.22.465-.516.856-.889 1.17a3.954 3.954 0 0 1-1.323.733 5.18 5.18 0 0 1-1.63.252c-.77 0-1.499-.133-2.188-.408a3.624 3.624 0 0 1-1.647-1.253l1.341-1.156zM155.186 114.242c.69 0 1.312-.126 1.865-.382a4.412 4.412 0 0 0 2.344-2.545 5.339 5.339 0 0 0 .322-1.858c0-.653-.108-1.274-.322-1.856a4.494 4.494 0 0 0-.918-1.52 4.359 4.359 0 0 0-1.426-1.027c-.553-.254-1.176-.382-1.865-.382-.69 0-1.312.128-1.867.382a4.405 4.405 0 0 0-2.34 2.547 5.255 5.255 0 0 0-.324 1.856c0 .655.106 1.276.324 1.858a4.414 4.414 0 0 0 2.34 2.545c.555.256 1.178.382 1.867.382m0 1.528c-.918 0-1.76-.16-2.527-.484a5.86 5.86 0 0 1-1.977-1.33 6.21 6.21 0 0 1-1.292-2.004 6.622 6.622 0 0 1-.466-2.495c0-.893.156-1.728.466-2.495a6.108 6.108 0 0 1 1.292-1.998 5.873 5.873 0 0 1 1.977-1.336c.767-.322 1.609-.48 2.527-.48.914 0 1.759.158 2.527.48.77.324 1.428.769 1.979 1.336.545.562.977 1.23 1.287 1.998.313.767.468 1.602.468 2.495s-.155 1.726-.468 2.495a6.225 6.225 0 0 1-1.287 2.003 5.903 5.903 0 0 1-1.979 1.33c-.768.325-1.613.485-2.527.485M166.688 108.746h2.138c.315 0 .63-.025.94-.08.312-.046.59-.143.832-.278.245-.135.439-.332.587-.584.145-.257.221-.588.221-.993 0-.407-.076-.738-.221-.994a1.51 1.51 0 0 0-.587-.583 2.562 2.562 0 0 0-.832-.283 5.654 5.654 0 0 0-.94-.074h-2.138v3.869zm-1.63-5.296h4.226c.77 0 1.402.104 1.9.313.497.21.892.479 1.178.801.29.32.49.682.605 1.084.111.401.169.788.169 1.163 0 .383-.069.756-.205 1.109-.135.356-.33.682-.584.97a3.339 3.339 0 0 1-2.165 1.092l3.411 5.48h-2.034l-3.055-5.29h-1.816v5.29h-1.63V103.45z" fill="#0D71B8" fill-rule="nonzero"/><path fill="#0D71B8" d="M176.7 103.46h1.63v12.014h-1.63z"/><path d="M190.305 114.037h2.394c.247 0 .522-.027.823-.073.299-.053.578-.152.839-.308.259-.153.48-.358.662-.62.18-.257.27-.603.27-1.033 0-.714-.232-1.245-.695-1.605-.464-.353-1.09-.533-1.885-.533h-2.408v4.172zm0-5.596h2.225a3.8 3.8 0 0 0 .862-.095 1.89 1.89 0 0 0 .713-.315c.205-.144.367-.333.484-.558.12-.227.18-.506.18-.829 0-.478-.155-.892-.459-1.242-.306-.35-.786-.525-1.444-.525h-2.561v3.564zm-1.63-4.992h4.177c.519 0 1.005.063 1.45.19.447.124.829.307 1.153.55a2.6 2.6 0 0 1 .765.934c.185.382.277.821.277 1.33 0 .69-.19 1.252-.576 1.69-.383.437-.882.755-1.492.959v.032c.362.023.702.117 1.017.283.317.162.592.376.823.64.234.267.417.576.55.93.137.348.204.726.204 1.135 0 .54-.108 1.019-.33 1.43a3.093 3.093 0 0 1-.907 1.047 4.235 4.235 0 0 1-1.34.644 5.95 5.95 0 0 1-1.646.22h-4.124v-12.014zM202.268 108.746h2.138c.317 0 .63-.025.94-.08.313-.046.59-.143.834-.278.244-.135.435-.332.585-.584.145-.257.221-.588.221-.993 0-.407-.076-.738-.221-.994a1.517 1.517 0 0 0-.585-.583 2.573 2.573 0 0 0-.834-.283 5.639 5.639 0 0 0-.94-.074h-2.138v3.869zm-1.627-5.296h4.225c.768 0 1.402.104 1.899.313.498.21.89.479 1.177.801.29.32.491.682.605 1.084.111.401.169.788.169 1.163 0 .383-.067.756-.204 1.109a3.183 3.183 0 0 1-.585.97 3.313 3.313 0 0 1-2.165 1.092l3.413 5.48h-2.038l-3.053-5.29h-1.816v5.29h-1.627V103.45z" fill="#0D71B8" fill-rule="nonzero"/><path fill="#0D71B8" d="M212.277 103.46h1.627v12.014h-1.627z"/><path d="M220.778 104.978h-3.87v-1.53h9.367v1.53h-3.868v10.484h-1.629v-10.484z" fill="#0D71B8" fill-rule="nonzero"/><path fill="#0D71B8" d="M229.279 103.46h1.629v12.014h-1.63z"/><path d="M235.623 112.951a2.66 2.66 0 0 0 1.129.978c.459.208.93.313 1.416.313.269 0 .548-.045.832-.128.28-.085.54-.21.77-.382.233-.17.423-.38.571-.628a1.69 1.69 0 0 0 .218-.866c0-.46-.146-.817-.441-1.058a3.742 3.742 0 0 0-1.093-.609c-.435-.167-.91-.325-1.427-.478a5.925 5.925 0 0 1-1.426-.636c-.436-.27-.8-.637-1.093-1.096-.293-.456-.44-1.075-.44-1.856 0-.353.075-.722.228-1.12a3.12 3.12 0 0 1 .72-1.083c.33-.328.749-.607 1.267-.828.513-.218 1.13-.326 1.858-.326.653 0 1.282.09 1.881.27.603.182 1.125.549 1.58 1.1l-1.326 1.206a2.155 2.155 0 0 0-.866-.76 2.715 2.715 0 0 0-1.27-.293c-.453 0-.83.061-1.128.18-.3.119-.542.272-.723.455-.18.19-.306.39-.38.605a1.854 1.854 0 0 0-.112.594c0 .51.146.896.441 1.17.294.275.66.495 1.096.664.434.168.91.323 1.424.456.513.137.99.326 1.426.567.436.245.801.572 1.094.986.292.412.44.981.44 1.705 0 .578-.108 1.098-.328 1.56a3.464 3.464 0 0 1-.893 1.17 3.928 3.928 0 0 1-1.325.733 5.153 5.153 0 0 1-1.627.252 5.83 5.83 0 0 1-2.187-.408c-.691-.272-1.24-.69-1.647-1.253l1.341-1.156zM245.974 103.45h1.627v4.99h6.229v-4.99h1.63v12.013h-1.63v-5.496H247.6v5.496h-1.627v-12.014zM266.161 112.951c.295.443.67.767 1.13.978.458.208.931.313 1.417.313.268 0 .547-.045.832-.128.28-.085.54-.21.77-.382a2.14 2.14 0 0 0 .57-.628c.147-.248.217-.535.217-.866 0-.46-.144-.817-.44-1.058a3.73 3.73 0 0 0-1.094-.609 19.098 19.098 0 0 0-1.426-.478 5.837 5.837 0 0 1-1.422-.636 3.41 3.41 0 0 1-1.096-1.096c-.295-.456-.44-1.075-.44-1.856 0-.353.075-.722.228-1.12a3.1 3.1 0 0 1 .722-1.083 3.97 3.97 0 0 1 1.265-.828c.515-.218 1.13-.326 1.856-.326.655 0 1.283.09 1.883.27.603.182 1.127.549 1.578 1.1l-1.324 1.206a2.155 2.155 0 0 0-.866-.76 2.722 2.722 0 0 0-1.271-.293c-.452 0-.83.061-1.127.18a2.037 2.037 0 0 0-.722.455c-.182.19-.308.39-.38.605a1.812 1.812 0 0 0-.113.594c0 .51.146.896.441 1.17.295.275.659.495 1.098.664.432.168.907.323 1.422.456.515.137.99.326 1.426.567.435.245.8.572 1.094.986.292.412.441.981.441 1.705a3.57 3.57 0 0 1-.331 1.56 3.436 3.436 0 0 1-.891 1.17 3.945 3.945 0 0 1-1.325.733 5.153 5.153 0 0 1-1.627.252c-.77 0-1.498-.133-2.189-.408-.69-.272-1.238-.69-1.645-1.253l1.339-1.156zM284.876 106.046a3.373 3.373 0 0 0-1.289-1.015 3.83 3.83 0 0 0-1.61-.36c-.68 0-1.295.13-1.842.383a4.207 4.207 0 0 0-1.41 1.042c-.389.443-.691.96-.907 1.556a5.538 5.538 0 0 0-.324 1.908c0 .631.104 1.23.308 1.798.205.567.497 1.062.882 1.492.381.43.853.769 1.407 1.02.555.246 1.181.372 1.885.372.688 0 1.293-.143 1.815-.427.52-.28.96-.677 1.323-1.184l1.375 1.035a5.12 5.12 0 0 1-.477.53 4.555 4.555 0 0 1-.898.7c-.375.231-.821.436-1.347.61-.527.174-1.137.262-1.827.262-.949 0-1.805-.18-2.569-.542a6.312 6.312 0 0 1-1.954-1.422 6.317 6.317 0 0 1-1.228-1.996 6.315 6.315 0 0 1-.425-2.248c0-.93.153-1.786.46-2.573a6.116 6.116 0 0 1 1.279-2.036 5.685 5.685 0 0 1 1.978-1.332c.769-.313 1.617-.471 2.545-.471a6.22 6.22 0 0 1 2.332.457 4.334 4.334 0 0 1 1.875 1.406l-1.357 1.035zM289.727 103.45h1.63v4.99h6.224v-4.99h1.634v12.013h-1.634v-5.496h-6.225v5.496h-1.629v-12.014zM309.087 114.242c.691 0 1.314-.126 1.868-.382a4.404 4.404 0 0 0 1.424-1.028c.396-.428.702-.932.918-1.517a5.38 5.38 0 0 0 .323-1.858c0-.653-.11-1.274-.323-1.856a4.494 4.494 0 0 0-.918-1.52 4.351 4.351 0 0 0-1.424-1.027c-.554-.254-1.177-.382-1.868-.382-.69 0-1.312.128-1.863.382a4.321 4.321 0 0 0-1.426 1.028c-.4.428-.702.932-.918 1.52a5.294 5.294 0 0 0-.322 1.855c0 .655.106 1.276.322 1.858.216.585.519 1.089.918 1.517.394.43.87.774 1.426 1.028.55.256 1.174.382 1.863.382m0 1.528c-.916 0-1.757-.16-2.525-.484a5.903 5.903 0 0 1-1.979-1.33 6.235 6.235 0 0 1-1.29-2.004 6.622 6.622 0 0 1-.467-2.495c0-.893.157-1.728.467-2.495a6.133 6.133 0 0 1 1.29-1.998 5.916 5.916 0 0 1 1.979-1.336c.768-.322 1.609-.48 2.525-.48.916 0 1.762.158 2.53.48a5.952 5.952 0 0 1 1.977 1.336 6.09 6.09 0 0 1 1.286 1.998c.315.767.47 1.602.47 2.495a6.52 6.52 0 0 1-.47 2.495 6.19 6.19 0 0 1-1.286 2.003 5.939 5.939 0 0 1-1.978 1.33c-.767.325-1.613.485-2.529.485M324.475 114.242c.691 0 1.312-.126 1.867-.382a4.45 4.45 0 0 0 1.425-1.028c.395-.428.702-.932.917-1.517a5.34 5.34 0 0 0 .324-1.858c0-.653-.11-1.274-.324-1.856a4.397 4.397 0 0 0-2.342-2.547c-.555-.254-1.176-.382-1.867-.382-.69 0-1.312.128-1.863.382a4.329 4.329 0 0 0-1.428 1.028 4.465 4.465 0 0 0-.918 1.52 5.336 5.336 0 0 0-.322 1.855c0 .655.108 1.276.322 1.858.216.585.52 1.089.918 1.517.396.43.87.774 1.428 1.028.55.256 1.174.382 1.863.382m0 1.528c-.916 0-1.759-.16-2.527-.484a5.877 5.877 0 0 1-1.977-1.33 6.205 6.205 0 0 1-1.29-2.004 6.588 6.588 0 0 1-.468-2.495c0-.893.156-1.728.468-2.495a6.104 6.104 0 0 1 1.29-1.998 5.89 5.89 0 0 1 1.977-1.336c.768-.322 1.61-.48 2.527-.48.916 0 1.76.158 2.53.48a5.927 5.927 0 0 1 1.976 1.336c.547.562.977 1.23 1.287 1.998.313.767.468 1.602.468 2.495s-.155 1.726-.468 2.495a6.195 6.195 0 0 1-1.287 2.003 5.913 5.913 0 0 1-1.977 1.33c-.769.325-1.613.485-2.529.485M334.351 103.45h1.627v10.485h5.516v1.528h-7.143v-12.014z" fill="#0D71B8" fill-rule="nonzero"/><path d="M210.985 85.103h76.008L248.986 8.927l-38.001 76.176z" fill="#008D36" fill-rule="nonzero"/><path d="M248.987 85.103h38.005l-19.003-38.09-19.002 38.09z" fill="#95C11F" fill-rule="nonzero"/><path fill="#BB9764" d="M58.112 64.301h38.071v19.115H58.112zM58.112 7.131h38.071v19.025H58.112zM58.112 35.712h38.071v19.025H58.112z"/><path fill="#0D71B8" d="M155.653 7.047H117.57v38.172h38.084z"/><path fill="#8F1346" d="M155.653 45.217H117.57v38.174h38.084z"/><path fill="#0D71B8" d="M193.76 45.217h-38.086v38.174h38.086z"/><path d="M20 7.035v76.35h38.086V7.035H20z" fill="#987447" fill-rule="nonzero"/><path fill="#ED71A8" d="M341.74 45.457h-38.401v39.364h38.4z"/><path fill="#E6007D" d="M341.74 6.095h-38.401V45.46h38.4z"/><path d="M341.738 6.091v39.366h19.111v39.378h19.288V6.091h-38.399z" fill="#ED71A8" fill-rule="nonzero"/></svg>